<svg xmlns="http://www.w3.org/2000/svg" width="24" height="24" viewBox="0 0 24 24" fill="none" stroke="white" stroke-width="2" stroke-linecap="round" stroke-linejoin="round" class="lucide lucide-memory-stick h-5 w-5" data-lov-id="src/components/ComponentsSection.tsx:95:18" data-lov-name="component.icon" data-component-path="src/components/ComponentsSection.tsx" data-component-line="95" data-component-file="ComponentsSection.tsx" data-component-name="component.icon" data-component-content="%7B%22className%22%3A%22h-5%20w-5%22%7D"><path d="M6 19v-3"></path><path d="M10 19v-3"></path><path d="M14 19v-3"></path><path d="M18 19v-3"></path><path d="M8 11V9"></path><path d="M16 11V9"></path><path d="M12 11V9"></path><path d="M2 15h20"></path><path d="M2 7a2 2 0 0 1 2-2h16a2 2 0 0 1 2 2v1.1a2 2 0 0 0 0 3.837V17a2 2 0 0 1-2 2H4a2 2 0 0 1-2-2v-5.1a2 2 0 0 0 0-3.837Z"></path></svg>